<svg width="268" height="230" viewBox="0 0 268 230" fill="none" xmlns="http://www.w3.org/2000/svg">
<g clip-path="url(#clip0_588_2186)">
<path d="M69.92 221.32C108.536 221.32 139.84 216.502 139.84 210.56C139.84 204.617 108.536 199.8 69.92 199.8C31.3042 199.8 0 204.617 0 210.56C0 216.502 31.3042 221.32 69.92 221.32Z" fill="#DFDFDF"/>
<path d="M128.59 207.83L109.53 131.21" stroke="#609DAB" stroke-width="5.02" stroke-miterlimit="10"/>
<path d="M63.3 132.94L85.3601 211.06" stroke="#609DAB" stroke-width="5.02" stroke-miterlimit="10"/>
<path d="M10.46 216.01L64.62 133.19" stroke="#71B8C8" stroke-width="5.02" stroke-miterlimit="10"/>
<path d="M61.27 220.61L109.49 133.19" stroke="#71B8C8" stroke-width="5.02" stroke-miterlimit="10"/>
<path d="M30.9199 163.11L33.5499 165.08H104.82L115.05 146.75L113.76 144.78H41.1499L30.9199 163.11Z" fill="#E9B230"/>
<path d="M15.21 193.06L17.84 195.04H89.11L99.34 176.71L98.05 174.74H25.44L15.21 193.06Z" fill="#E9B230"/>
<path d="M109.49 133.19L63.3 132.94" stroke="#71B8C8" stroke-width="5.02" stroke-miterlimit="10"/>
<path d="M102.85 163.11H30.9199L41.1499 144.78H113.08L102.85 163.11Z" fill="#FAC440"/>
<path d="M87.0101 193.02H15.0801L25.3101 174.69H97.2401L87.0101 193.02Z" fill="#FAC440"/>
<path d="M114.23 134.14C113.43 138.12 110.12 140.8 106.82 140.14C103.53 139.48 101.5 135.72 102.3 131.75C103.1 127.77 106.41 125.09 109.71 125.75C113 126.41 115.03 130.17 114.23 134.14Z" fill="#FAC440"/>
<path d="M107.09 138.85C104.39 138.31 102.73 135.22 103.38 131.97C104.03 128.71 106.76 126.51 109.45 127.05C112.15 127.59 113.81 130.68 113.16 133.93C112.51 137.19 109.78 139.39 107.09 138.85Z" fill="#EA523E"/>
<path d="M107.74 135.61C106.52 135.37 105.77 133.97 106.06 132.5C106.36 131.03 107.59 130.03 108.81 130.27C110.03 130.51 110.78 131.91 110.49 133.38C110.2 134.85 108.96 135.85 107.74 135.61Z" fill="#C5361E"/>
<path d="M67.8598 134.11C67.0698 138.09 63.7998 140.79 60.5398 140.15C57.2798 139.51 55.2798 135.76 56.0698 131.78C56.8598 127.8 60.1298 125.1 63.3898 125.74C66.6498 126.38 68.6498 130.13 67.8598 134.11Z" fill="#FAC440"/>
<path d="M60.7999 138.85C58.1299 138.32 56.4899 135.24 57.1299 131.99C57.7699 128.73 60.4699 126.51 63.1299 127.04C65.7999 127.57 67.4399 130.65 66.7999 133.9C66.1599 137.16 63.4599 139.38 60.7999 138.85Z" fill="#EA523E"/>
<path d="M61.4399 135.61C60.2299 135.37 59.4899 133.98 59.7799 132.51C60.0699 131.04 61.2899 130.03 62.4899 130.27C63.6999 130.51 64.4399 131.9 64.1499 133.37C63.8599 134.84 62.6399 135.85 61.4399 135.61Z" fill="#C5361E"/>
<path d="M41.1499 144.78L30.9199 163.11L41.1499 163.07L51.7299 144.78H41.1499Z" fill="#454545"/>
<path d="M61.6099 144.78L51.3799 163.11L61.6099 163.07L72.1899 144.78H61.6099Z" fill="#454545"/>
<path d="M82.0598 144.78L71.8398 163.11L82.0598 163.07L92.6398 144.78H82.0598Z" fill="#454545"/>
<path d="M103.18 144.78L92.95 163.11L103.18 163.07L113.76 144.78H103.18Z" fill="#454545"/>
<path d="M103.18 144.78L92.95 163.11L103.18 163.07L113.76 144.78H103.18Z" fill="#454545"/>
<path d="M103.18 144.78L92.95 163.11L103.18 163.07L113.76 144.78H103.18Z" fill="#454545"/>
<path d="M24.97 174.69L14.74 193.02L24.97 192.98L35.55 174.69H24.97Z" fill="#454545"/>
<path d="M45.43 174.69L35.2 193.02L45.43 192.98L56.0099 174.69H45.43Z" fill="#454545"/>
<path d="M65.8899 174.69L55.6599 193.02L65.8899 192.98L76.4699 174.69H65.8899Z" fill="#454545"/>
<path d="M87 174.69L76.77 193.02L87 192.98L97.58 174.69H87Z" fill="#454545"/>
<path d="M87 174.69L76.77 193.02L87 192.98L97.58 174.69H87Z" fill="#454545"/>
<path d="M87 174.69L76.77 193.02L87 192.98L97.58 174.69H87Z" fill="#454545"/>
<path d="M252.42 209.43C252 204.85 249.82 200.99 246.78 198.42L212.44 198.03L209.32 203.59C208.67 204.61 208.93 205.96 209.91 206.67C213.27 209.11 221.09 213.88 238.51 213.88C244.12 213.88 248.71 213.47 252.47 212.84C252.66 211.74 252.65 210.6 252.42 209.44V209.43Z" fill="#EC7F29"/>
<path d="M267.23 202.86C266.74 201.77 265.03 198.63 265.03 198.63L246.78 198.42C249.83 200.99 252.01 204.85 252.42 209.43C252.65 210.6 252.66 211.73 252.47 212.83C260.98 211.4 265.24 208.8 267.39 207.09C268.34 206.34 268.06 204.71 267.23 202.85V202.86Z" fill="#E97018"/>
<path d="M220.75 193.81C215.08 195.39 211.5 197.7 211.5 200.29C211.5 205.04 223.6 208.89 238.52 208.89C240.87 208.89 243.16 208.79 245.34 208.61C236.72 207.15 228.62 203.77 222.01 197.15C221.19 196.16 220.81 195.01 220.76 193.8L220.75 193.81Z" fill="#E6721C"/>
<path d="M265.53 200.29C265.53 195.54 253.43 191.69 238.51 191.69C231.71 191.69 225.49 192.49 220.74 193.81C220.79 195.02 221.16 196.17 221.99 197.16C228.61 203.78 236.7 207.16 245.32 208.62C256.94 207.66 265.53 204.29 265.53 200.29Z" fill="#DC6B16"/>
<path d="M245.33 157.69L241.31 144.43C240.86 143.36 239.36 143.32 238.85 144.36L234.19 157.69H245.32H245.33Z" fill="#EC7F29"/>
<path d="M232.48 162.6L230.59 168H235.14C234.56 166.21 234.06 164.41 233.66 162.6H232.48Z" fill="#EA751F"/>
<path d="M246.81 162.6H233.66C234.06 164.41 234.56 166.21 235.14 168H248.44L246.8 162.6H246.81Z" fill="#EC7F29"/>
<path d="M255.48 199.26C256.96 198.19 257.33 197.3 257.33 197.3L249.94 172.91H236.97C239.66 179.39 243.37 185.62 247.52 191.27C249.92 194.51 252.6 197.1 255.48 199.26Z" fill="#EC7F29"/>
<path d="M247.52 191.27C243.37 185.62 239.67 179.38 236.97 172.91H228.88L220.36 197.3C220.36 197.3 223.63 202.86 238.85 202.86C248.56 202.86 253.27 200.86 255.48 199.26C252.6 197.1 249.92 194.51 247.52 191.27Z" fill="#EA751F"/>
<path d="M232.48 162.6H233.66C233.5 161.88 233.35 161.17 233.23 160.45L232.48 162.6Z" fill="white"/>
<path d="M245.33 157.69H234.2L233.24 160.45C233.37 161.17 233.51 161.88 233.67 162.6H246.82L245.33 157.69Z" fill="white"/>
<path d="M230.59 168L228.88 172.91H236.97C236.3 171.29 235.69 169.65 235.15 168H230.6H230.59Z" fill="#AAD7B7"/>
<path d="M248.45 168H235.15C235.69 169.65 236.3 171.29 236.97 172.91H249.94L248.45 168Z" fill="white"/>
<path d="M233.74 126.29L224.88 121.15L211.05 144.92C208.16 116.22 202.54 89.5601 191.71 85.8701C176.7 80.7701 161.86 81.9101 152.53 83.5401C146.76 84.5701 142.28 89.1501 141.34 94.9301C139.73 104.67 137.18 121.21 135.04 139.31L124.43 121.04L115.57 126.18L133.39 154.6C131.16 177.49 130.15 200.56 132.94 214.01C133.91 218.64 137.27 222.41 141.73 224.01C152.07 227.74 174.2 232.92 204.07 224.44C210.01 222.75 214.06 217.24 214.06 211.08C214.06 199.79 213.76 180.5 212.37 160.34L233.75 126.27V126.29H233.74Z" fill="#6AB464"/>
<path d="M152.04 168.14C154.79 168.14 157.02 165.91 157.02 163.17C157.02 160.43 154.79 158.2 152.04 158.2C149.29 158.2 147.06 160.43 147.06 163.17C147.06 165.91 149.29 168.14 152.04 168.14Z" fill="#81321F"/>
<path d="M192.74 168.14C195.49 168.14 197.72 165.91 197.72 163.17C197.72 160.43 195.49 158.2 192.74 158.2C189.99 158.2 187.76 160.43 187.76 163.17C187.76 165.91 189.99 168.14 192.74 168.14Z" fill="#81321F"/>
<path d="M172.78 187.14C168.17 187.14 164.27 184.91 162.21 183.03C161.33 182.22 161.29 180.87 162.1 180.01C162.91 179.13 164.27 179.09 165.12 179.9C165.42 180.18 172.5 186.47 180.24 179.83C181.14 179.06 182.49 179.17 183.26 180.07C184.03 180.97 183.92 182.32 183.02 183.09C179.52 186.09 175.96 187.16 172.77 187.16V187.14H172.78Z" fill="#7C311F"/>
<path d="M242.86 71.4403C243.22 69.4303 243.46 67.3702 243.46 65.2702C243.46 46.7402 228.43 31.7103 209.86 31.7103C206.24 31.7103 202.76 32.3103 199.48 33.3603C195.53 24.4703 186.63 18.2603 176.26 18.2603C167.15 18.2603 159.17 23.0803 154.69 30.2703C153.42 30.1403 152.16 30.0803 150.87 30.0803C129.88 30.0803 112.81 46.7002 111.99 67.4502C104.68 74.5202 100.13 84.4103 100.13 95.3603C100.13 116.84 117.56 134.25 139.07 134.25C143.7 134.25 148.12 133.39 152.24 131.92C159.08 133.93 166.59 135.07 174.46 135.07C181.86 135.07 188.93 134.08 195.43 132.29C201.22 135.72 207.98 137.71 215.18 137.71C236.69 137.71 254.12 120.3 254.12 98.8203C254.12 88.1303 249.81 78.4702 242.82 71.4502H242.86V71.4403Z" fill="#1C7F3C"/>
<path d="M162.31 1.3501C159.56 2.2201 156.95 3.5101 154.61 5.2001C148.83 9.4001 144.8 15.8501 143.19 22.8101C141.58 29.7801 142.34 37.2101 144.98 43.8601L145.25 44.0101C152.76 48.7301 161.66 50.5801 170.36 52.3501C176.27 53.5501 182.4 54.7501 188.27 53.3901C193.87 52.1001 198.7 48.5801 202.97 44.7401C203.68 44.1001 204.38 43.4501 205 42.7301C197.68 45.0201 189.91 46.2001 182.54 47.2901C185.35 30.4401 178.4 8.3701 162.3 1.3501H162.31Z" fill="#ECB42F"/>
<path d="M200.55 32.6302C199.86 32.4702 199.15 32.2802 198.89 31.6202C198.63 30.9602 198.7 30.2202 198.74 29.5102C199.41 19.0302 193.59 8.41021 184.39 3.35021C177.73 -0.319786 169.54 -0.929786 162.31 1.36021C178.41 8.39021 185.36 30.4602 182.55 47.3002C189.92 46.2202 197.69 45.0302 205.01 42.7402C205.53 42.1402 205.99 41.5002 206.35 40.8002C208.92 35.6802 202.76 33.1502 200.55 32.6402V32.6302Z" fill="#FAC440"/>
<path d="M174.94 48.7902C183.62 48.7102 192.14 44.1402 197.01 36.9502" stroke="#DCA42A" stroke-width="2.84" stroke-linecap="round" stroke-linejoin="round"/>
<path d="M157.55 48.8904C155.37 42.6204 153.17 36.2604 152.74 29.6404C152.32 23.0204 153.89 15.9904 158.41 11.1304" stroke="#DCA42A" stroke-width="2.84" stroke-linecap="round" stroke-linejoin="round"/>
<path d="M182.12 4.5C187.46 7.15 191.78 11.78 194.05 17.29" stroke="#FCCE5C" stroke-width="2.84" stroke-miterlimit="10"/>
<path d="M167 0.260254C171.33 1.38025 175.28 3.88025 178.14 7.31025C180.44 10.0703 182.19 13.4603 182.96 17.0003C183.32 18.6603 182.51 20.3603 181 21.1403C178.91 22.2203 176.53 22.8003 174.17 22.8303C172.58 22.8503 171.18 21.7903 170.67 20.2903C169.51 16.9203 167.8 13.7303 165.37 11.1503C162.39 7.98025 158.23 5.78025 153.88 5.71025C157.7 2.69025 162.16 0.650254 167.01 0.260254H167Z" fill="#FBCB55"/>
<path d="M165.45 1.4502C173.4 3.3602 179.8 10.5302 180.81 18.6402" stroke="#FDD77C" stroke-width="1.9" stroke-linecap="round" stroke-linejoin="round"/>
</g>
<defs>
<clipPath id="clip0_588_2186">
<rect width="267.99" height="229.03" fill="white"/>
</clipPath>
</defs>
</svg>
