<?xml version="1.0" standalone="no"?>
<!DOCTYPE svg PUBLIC "-//W3C//DTD SVG 20010904//EN"
 "http://www.w3.org/TR/2001/REC-SVG-20010904/DTD/svg10.dtd">
<svg version="1.0" xmlns="http://www.w3.org/2000/svg"
 width="344.000000pt" height="344.000000pt" viewBox="0 0 344.000000 344.000000"
 preserveAspectRatio="xMidYMid meet">
<metadata>
Created by potrace 1.14, written by Peter Selinger 2001-2017
</metadata>
<g transform="translate(0.000000,344.000000) scale(0.100000,-0.100000)"
fill="#000000" stroke="none">
<path d="M1637 3434 c-1 -1 -36 -4 -79 -8 -360 -30 -608 -240 -713 -603 -45
-154 -51 -212 -47 -463 9 -557 6 -773 -13 -920 -11 -81 -18 -126 -20 -130 -2
-3 -6 -25 -10 -49 -25 -169 -121 -306 -245 -351 -96 -34 -226 -45 -326 -26
-38 7 -43 5 -64 -21 -46 -58 -5 -160 111 -275 100 -99 189 -138 320 -138 110
0 212 38 358 132 120 78 134 63 35 -39 -134 -138 -204 -250 -204 -329 0 -61
17 -78 160 -152 197 -104 407 -49 616 162 88 89 121 129 187 230 l44 67 7 -33
c3 -18 25 -70 47 -117 67 -138 202 -261 349 -319 167 -65 360 -65 455 -1 82
56 68 119 -54 252 -127 138 -180 259 -144 330 7 15 17 27 21 27 4 0 26 -18 47
-40 22 -22 57 -53 80 -68 22 -15 42 -29 45 -32 3 -4 30 -18 61 -32 107 -50
228 -56 335 -17 155 57 354 240 341 315 -11 65 -61 92 -144 77 -336 -61 -543
225 -580 802 -9 148 -9 294 2 445 11 155 12 466 2 542 -57 436 -309 716 -699
774 -32 5 -276 11 -281 8z"/>
</g>
</svg>
